<?xml version="1.0" encoding="utf-8"?>
<!-- Generator: Adobe Illustrator 24.1.1, SVG Export Plug-In . SVG Version: 6.00 Build 0)  -->
<svg version="1.1" id="Capa_1" xmlns="http://www.w3.org/2000/svg" xmlns:xlink="http://www.w3.org/1999/xlink" x="0px" y="0px"
	 viewBox="0 0 152.8 46.1" style="enable-background:new 0 0 152.8 46.1;" xml:space="preserve">
<style type="text/css">
	.st0{fill:#00ABC5;}
	.st1{fill-rule:evenodd;clip-rule:evenodd;fill:#00ABC5;}
	.st2{fill:#6F6F6E;}
</style>
<path class="st0" d="M55.5,38c-1.5,0-2.5,0.2-3.1,0.5c-0.6,0.4-1,1-1,2c-0.1,0.6,0.1,1.2,0.4,1.6c0.3,0.4,0.8,0.6,1.3,0.6
	c0.8,0,1.6-0.4,2.4-1.1l0.3-3.6C55.8,38,55.5,38,55.5,38z M50.6,29.3c1.6-0.6,3.1-1,4.6-1c1.6,0,2.9,0.2,3.7,0.6
	c1.1,0.5,1.3,1.4,1.4,2.4c0.2,0.9,0.1,1.8,0,2.9l-0.5,5.6v0.3c-0.1,0.9,0,1.6,0.1,2c0.2,0.4,0.5,0.9,1.1,1.4l-2.4,2.6l-1.3-0.8
	c-0.4-0.3-0.6-0.7-0.8-1.2L56,44.5l-1.1,0.8c-0.6,0.4-1.6,0.6-2.9,0.6c-1.9,0-3.2-0.4-4.1-1.3c-0.9-0.9-1.3-2.2-1.1-3.8
	c0.3-3.8,3.1-5.7,8.4-5.7h1l0.1-0.7c0.1-0.9,0-1.6-0.2-1.9c-0.2-0.3-0.7-0.5-1.5-0.5c-0.7,0-1.4,0.2-2.3,0.5
	c-0.8,0.3-1.7,0.8-2.7,1.4l-1.8-3.2L50.6,29.3z M36.7,28.3c0.4,0.7,0.5,1.4,0.4,2.1l1.1-0.7l1.4-0.7c0.7-0.3,1.5-0.5,2.6-0.5
	c0.9,0,1.8,0.2,2.4,0.6c0.7,0.4,1.1,1,1.3,1.6c0.2,0.7,0.2,1.5,0.2,2.5l-1,12.1h-4.3l0.9-10.8c0.1-0.6,0.1-1.3-0.1-1.9
	c-0.2-0.3-0.5-0.5-1.1-0.5c-0.5,0-1,0.1-1.5,0.4l-1.7,1.1l-1,11.7H32l1-12c0.1-1.5,0-2.8-0.3-3.9C32.7,29.4,36.7,28.3,36.7,28.3z
	 M21.8,33.3c-0.4,0.9-0.6,2.1-0.8,3.7c-0.2,1.9-0.1,3.2,0.1,3.8s0.5,1.1,0.9,1.3s0.8,0.4,1.3,0.4c0.9,0,1.6-0.4,2.1-1.3
	s0.8-2.3,1-4.3c0.2-2.2,0-3.6-0.4-4.3c-0.5-0.7-1.1-1-1.9-1C23.1,31.6,22.3,32.2,21.8,33.3z M29.8,30.9c1.2,1.5,1.6,3.5,1.4,6
	c-0.1,1.4-0.4,2.7-0.8,3.6c-0.4,1-1,1.9-1.8,2.7C27.8,44,27,44.6,26.1,45c-1,0.4-2.1,0.6-3.2,0.6c-2.2,0-4-0.8-5.2-2.3
	s-1.7-3.6-1.5-6.2c0.2-2.6,1.1-4.7,2.5-6.3c1.4-1.6,3.5-2.5,5.6-2.4C26.8,28.4,28.6,29.2,29.8,30.9z M16.6,22.8l-0.2,3.3l-9.5,14
	l-0.7,1l-0.6,0.6l1.1-0.1h8.8L14,45.3H0l0.2-3.2l9.4-13.7l0.9-1.1l0.7-0.9L10,26.5H1.9l1.3-3.7C3.2,22.8,16.6,22.8,16.6,22.8z"/>
<path class="st1" d="M114.4,13.8c2.7,1.7,3.4,5.3,0.9,7.8c-2.7,2.5-6.8,2.7-9.7,0.5c-2.4-2.1-2.2-5.4,0.1-7.5
	C108,12.6,111.7,12.1,114.4,13.8 M118,2.9c2.5,1.1,3.2,3.6,1.1,5.6c-2.4,2-5.7,2.4-8.5,1c-2.3-1.3-2.3-3.7-0.3-5.4
	C112.5,2.3,115.4,1.8,118,2.9 M134,0.6c3.3,1.1,4.9,3.8,2.9,5.8c-2.1,2.1-6.8,2.6-10.1,1.1c-3.1-1.4-3.8-3.9-1.8-5.7
	C126.8,0.1,130.6-0.5,134,0.6 M146.6,10.9c4.8,1.9,7.7,6,5.4,8.9c-2.4,3-8.8,3.2-13.7,0.6c-4.4-2.4-5.8-6.1-3.5-8.5
	C137,9.6,141.9,9,146.6,10.9 M134.5,21.8c4.4,2.6,6.7,7.7,4,11.1c-2.8,3.5-9.2,3.3-13.7-0.2c-4-3.1-4.7-7.7-2.1-10.4
	C125.2,19.7,130.1,19.3,134.5,21.8"/>
<path class="st2" d="M120,33.2c-0.4,0.9-0.6,2.1-0.8,3.7c-0.2,1.9-0.1,3.2,0.1,3.8s0.5,1.1,0.9,1.3c0.4,0.2,0.8,0.4,1.3,0.4
	c0.9,0,1.6-0.4,2.1-1.3s0.8-2.3,1-4.3c0.2-2.2,0.1-3.6-0.4-4.3s-1.1-1-1.9-1C121.3,31.6,120.5,32.1,120,33.2 M128,30.8
	c1.2,1.8,1.7,3.9,1.4,6c-0.1,1.4-0.4,2.7-0.8,3.6c-0.4,1-1,1.9-1.8,2.7c-0.8,0.8-1.6,1.4-2.5,1.8c-1,0.4-2.1,0.6-3.2,0.6
	c-2.2,0-4-0.8-5.2-2.3s-1.7-3.6-1.5-6.2c0.1-2.3,1-4.6,2.6-6.3c1.4-1.6,3.5-2.4,5.6-2.4C125,28.4,126.8,29.2,128,30.8L128,30.8z
	 M104,28.3c0.3,0.7,0.5,1.4,0.4,2.1l1.1-0.7l1.4-0.7c0.7-0.3,1.5-0.5,2.6-0.5c0.9,0,1.8,0.2,2.4,0.6c0.7,0.4,1.1,1,1.3,1.6
	c0.2,0.7,0.2,1.5,0.1,2.5l-1,12.1H108l0.9-10.8c0.1-0.6,0.1-1.3-0.1-1.9c-0.2-0.3-0.5-0.5-1.1-0.5c-0.5,0-1,0.1-1.5,0.4l-1.7,1.1
	l-1,11.7h-4.3l1-12c0.1-1.5,0-2.8-0.2-3.9C100,29.4,104,28.3,104,28.3z M96.4,32.9c-0.9-0.9-1.7-1.3-2.5-1.3c-1,0-1.7,0.4-2.2,1.3
	c-0.5,0.9-0.9,2.3-1,4.2c-0.2,2,0,3.4,0.4,4.1c0.5,0.7,1.1,1,1.9,1c0.9,0,2-0.5,3.1-1.4l0.3-0.2l1.7,2.6l-0.8,0.7
	c-0.5,0.4-1,0.7-1.5,0.9c-0.8,0.4-1.9,0.6-3.4,0.6c-2.3,0-4-0.7-5.1-2.2c-1.2-1.9-1.7-4.1-1.3-6.3c0.1-1.6,0.6-3.2,1.3-4.7
	c0.7-1.3,1.7-2.3,2.9-3.1c1.2-0.8,2.7-1.2,4.1-1.1c1.1,0,2.1,0.3,3.1,0.7l1.5,1.2C98.9,29.9,96.4,32.9,96.4,32.9z M80.1,35.1v-0.2
	c0.1-1.1,0-2-0.4-2.6c-0.3-0.6-0.9-0.9-1.8-0.9c-0.8,0-1.5,0.3-2,0.9c-0.5,0.6-0.8,1.5-0.9,2.6C75,34.9,80.1,35.1,80.1,35.1z
	 M83.7,43.4c-2,1.5-4.1,2.3-6.4,2.3c-2.4,0-4.2-0.8-5.5-2.3s-1.8-3.6-1.6-6.2c0.1-1.5,0.4-2.7,0.8-3.8c0.4-1,1.2-2.1,2.3-3.3
	s2.8-1.7,4.9-1.7c2.1,0,3.7,0.7,4.9,2s1.6,3.7,1.3,7l-0.1,1h-9.5v0.1c-0.1,1.3,0.1,2.3,0.6,3s1.4,1,2.5,1c1.5,0,2.9-0.5,4.3-1.6
	L83.7,43.4z M75.4,22.8l-0.7,3.7h-5.4l-1.6,18.7h-4.6l1.6-18.7h-5.5l0.3-3.7C59.5,22.8,75.4,22.8,75.4,22.8z"/>
</svg>
